<?xml version="1.0" encoding="UTF-8"?>
<svg version="1.1" xmlns="http://www.w3.org/2000/svg" width="512" height="512">
<path d="M0 0 C1.39887955 -0.01475876 1.39887955 -0.01475876 2.82601929 -0.02981567 C57.57088855 -0.4880434 109.12378205 11.10344388 155.04296875 42.23828125 C155.64254395 42.64256348 156.24211914 43.0468457 156.85986328 43.46337891 C165.73960159 49.50045241 173.97969134 56.15715546 182.04296875 63.23828125 C182.90535156 63.98851562 183.76773437 64.73875 184.65625 65.51171875 C195.02233699 74.67090885 204.52811934 84.32296898 213.04296875 95.23828125 C213.831875 96.22183594 214.62078125 97.20539063 215.43359375 98.21875 C240.22782769 129.38092878 256.76018156 166.39116127 265.04296875 205.23828125 C265.26742676 206.28483887 265.49188477 207.33139648 265.72314453 208.40966797 C272.12168314 239.96040516 271.78783799 275.78966266 265.04296875 307.23828125 C264.80690918 308.3454248 264.57084961 309.45256836 264.32763672 310.59326172 C253.53897122 359.34745673 229.18840437 401.28452038 195.04296875 437.23828125 C193.86541016 438.47964844 193.86541016 438.47964844 192.6640625 439.74609375 C187.16144323 445.39636828 181.2046152 450.32669544 175.04296875 455.23828125 C173.96208984 456.15480469 173.96208984 456.15480469 172.859375 457.08984375 C132.76229096 490.68276621 77.76221825 512.16589817 25.25 512.44140625 C24.3494136 512.44842056 23.44882721 512.45543488 22.52095032 512.46266174 C19.63240494 512.48005934 16.74406459 512.48651352 13.85546875 512.48828125 C12.86842957 512.48895599 11.88139038 512.48963074 10.86444092 512.49032593 C-3.60428676 512.47459617 -17.73044345 512.11839209 -31.95703125 509.23828125 C-32.87484375 509.05604004 -33.79265625 508.87379883 -34.73828125 508.68603516 C-41.18983382 507.37446783 -47.57993243 505.87183609 -53.95703125 504.23828125 C-55.07319824 503.95645996 -55.07319824 503.95645996 -56.21191406 503.66894531 C-106.76212465 490.65441198 -154.79709583 458.1841784 -186.95703125 417.23828125 C-187.74851563 416.25214844 -188.54 415.26601563 -189.35546875 414.25 C-221.27320546 373.82422307 -242.74356882 321.23087208 -243.1953125 269.28125 C-243.20506104 268.34834641 -243.21480957 267.41544281 -243.22485352 266.45426941 C-243.39694656 245.70899062 -243.22121504 225.62358404 -238.95703125 205.23828125 C-238.76979492 204.33126465 -238.58255859 203.42424805 -238.38964844 202.48974609 C-234.23023654 183.02527884 -227.65539996 164.12663439 -218.95703125 146.23828125 C-218.30541016 144.89612549 -218.30541016 144.89612549 -217.640625 143.52685547 C-201.19518064 110.0461754 -177.43261113 79.31137861 -147.95703125 56.23828125 C-146.9721875 55.44808594 -145.98734375 54.65789063 -144.97265625 53.84375 C-104.71789546 21.82407197 -51.83223408 0.45134053 0 0 Z " fill="#C24780" transform="translate(242.95703125,-0.23828125)"/>
<path d="M0 0 C0.6841067 -0.00297112 1.36821341 -0.00594224 2.07305062 -0.0090034 C4.34714451 -0.01761932 6.62118532 -0.01919261 8.89529419 -0.02069092 C10.53374848 -0.02532436 12.1722017 -0.03034972 13.81065369 -0.03573608 C18.25132125 -0.04881668 22.69197372 -0.05529725 27.13265753 -0.05974674 C29.9143287 -0.06268619 32.69599583 -0.06679275 35.47766495 -0.07125092 C44.20165578 -0.08491818 52.92563727 -0.09458702 61.64963806 -0.09845281 C71.68042719 -0.10292333 81.71107937 -0.12042761 91.74182689 -0.1494534 C99.51966685 -0.17116897 107.29746857 -0.18116242 115.07533848 -0.18249393 C119.70866432 -0.18353547 124.34186129 -0.18930241 128.97515488 -0.20731354 C133.34353717 -0.22396456 137.71169611 -0.22586849 142.08009911 -0.21717453 C143.66940223 -0.216413 145.25871822 -0.22062756 146.84799004 -0.23063278 C174.1780806 -0.3923736 197.02200799 6.61726989 216.85671997 26.14044189 C228.5081948 37.76789307 236.25590174 53.17612063 239.85671997 69.14044189 C240.01968661 69.77843184 240.18265326 70.41642179 240.35055828 71.07374477 C242.17605723 78.91512491 242.14632275 86.69287728 242.13137817 94.69342041 C242.13573339 96.24364974 242.14091922 97.79387691 242.14686584 99.34410095 C242.16018559 103.53049166 242.16084198 107.71679169 242.15830255 111.90319943 C242.15722723 115.41387488 242.16213089 118.9245324 242.16690797 122.43520397 C242.17798066 130.73027432 242.17845434 139.02529938 242.1723938 147.32037354 C242.16636672 155.83632279 242.17863792 164.35210629 242.19996387 172.86802727 C242.21767089 180.21281811 242.22356666 187.55755665 242.22032613 194.90236801 C242.21852625 199.27406985 242.22101744 203.64565366 242.23504066 208.01733589 C242.24776214 212.1370813 242.24554214 216.25657195 242.23262978 220.37631416 C242.23029454 221.87369885 242.23288643 223.37110228 242.2412529 224.86846542 C242.38009104 251.68764851 234.92113787 276.6135107 215.85671997 296.14044189 C196.3944867 314.98864037 173.84572619 320.28428209 147.40408325 320.30157471 C145.74574678 320.30621022 144.08741136 320.31123586 142.42907715 320.31661987 C137.94554381 320.32967139 133.46202539 320.33617406 128.97847605 320.34063053 C126.17238448 320.34357177 123.36629691 320.34767841 120.56020737 320.3521347 C111.76575622 320.36578778 102.9713143 320.37546629 94.1768533 320.3793366 C84.0515041 320.3838183 73.92628983 320.40138065 63.80098164 320.43033719 C55.95440591 320.45199274 48.10786805 320.46204287 40.26126277 320.46337771 C35.5834456 320.46442255 30.90575564 320.47026231 26.22797012 320.48819733 C21.82674928 320.5047462 17.42575041 320.50680065 13.02450943 320.49805832 C11.41655887 320.4972917 9.80859601 320.50158071 8.20067596 320.51151657 C-0.69800077 320.56324668 -8.6217226 319.9841223 -17.14328003 317.14044189 C-18.7662254 316.71584276 -20.3910079 316.29814462 -22.01828003 315.89044189 C-32.17441931 312.79031671 -41.12878789 306.98735514 -49.14328003 300.14044189 C-49.94249878 299.49719971 -50.74171753 298.85395752 -51.56515503 298.19122314 C-61.42676627 289.90685718 -68.21769051 279.87038314 -73.58078003 268.26544189 C-73.89869507 267.59585449 -74.21661011 266.92626709 -74.54415894 266.23638916 C-80.05161583 253.56686822 -80.58985596 239.8146184 -80.53146362 226.23199463 C-80.53554213 224.60866953 -80.54089109 222.98534722 -80.5473938 221.36203003 C-80.56092034 217.00460034 -80.55583057 212.64738679 -80.54625654 208.28995395 C-80.53858429 203.69926352 -80.54572619 199.10858983 -80.55041504 194.51789856 C-80.55585025 186.81432827 -80.54873945 179.11084468 -80.53439331 171.4072876 C-80.51806532 162.53784822 -80.52336545 153.66861579 -80.53987253 144.7991814 C-80.55354451 137.14261891 -80.55537946 129.48611823 -80.54755652 121.82954746 C-80.54291198 117.27468643 -80.54216551 112.71992224 -80.55216599 108.16506767 C-80.56091736 103.88108264 -80.5546669 99.59736105 -80.53748322 95.31340408 C-80.53356178 93.7539024 -80.53457647 92.19437803 -80.54127121 90.63488579 C-80.63953733 65.39137381 -73.07334019 42.20387076 -55.13937378 24.04278564 C-40.1288113 9.3369095 -21.28930868 0.05200531 0 0 Z " fill="#D02B76" transform="translate(176.14328002929688,95.85955810546875)"/>
<path d="M0 0 C0.6841067 -0.00297112 1.36821341 -0.00594224 2.07305062 -0.0090034 C4.34714451 -0.01761932 6.62118532 -0.01919261 8.89529419 -0.02069092 C10.53374848 -0.02532436 12.1722017 -0.03034972 13.81065369 -0.03573608 C18.25132125 -0.04881668 22.69197372 -0.05529725 27.13265753 -0.05974674 C29.9143287 -0.06268619 32.69599583 -0.06679275 35.47766495 -0.07125092 C44.20165578 -0.08491818 52.92563727 -0.09458702 61.64963806 -0.09845281 C71.68042719 -0.10292333 81.71107937 -0.12042761 91.74182689 -0.1494534 C99.51966685 -0.17116897 107.29746857 -0.18116242 115.07533848 -0.18249393 C119.70866432 -0.18353547 124.34186129 -0.18930241 128.97515488 -0.20731354 C133.34353717 -0.22396456 137.71169611 -0.22586849 142.08009911 -0.21717453 C143.66940223 -0.216413 145.25871822 -0.22062756 146.84799004 -0.23063278 C174.1780806 -0.3923736 197.02200799 6.61726989 216.85671997 26.14044189 C228.5081948 37.76789307 236.25590174 53.17612063 239.85671997 69.14044189 C240.01968661 69.77843184 240.18265326 70.41642179 240.35055828 71.07374477 C242.17605723 78.91512491 242.14632275 86.69287728 242.13137817 94.69342041 C242.13573339 96.24364974 242.14091922 97.79387691 242.14686584 99.34410095 C242.16018559 103.53049166 242.16084198 107.71679169 242.15830255 111.90319943 C242.15722723 115.41387488 242.16213089 118.9245324 242.16690797 122.43520397 C242.17798066 130.73027432 242.17845434 139.02529938 242.1723938 147.32037354 C242.16636672 155.83632279 242.17863792 164.35210629 242.19996387 172.86802727 C242.21767089 180.21281811 242.22356666 187.55755665 242.22032613 194.90236801 C242.21852625 199.27406985 242.22101744 203.64565366 242.23504066 208.01733589 C242.24776214 212.1370813 242.24554214 216.25657195 242.23262978 220.37631416 C242.23029454 221.87369885 242.23288643 223.37110228 242.2412529 224.86846542 C242.38009104 251.68764851 234.92113787 276.6135107 215.85671997 296.14044189 C196.3944867 314.98864037 173.84572619 320.28428209 147.40408325 320.30157471 C145.74574678 320.30621022 144.08741136 320.31123586 142.42907715 320.31661987 C137.94554381 320.32967139 133.46202539 320.33617406 128.97847605 320.34063053 C126.17238448 320.34357177 123.36629691 320.34767841 120.56020737 320.3521347 C111.76575622 320.36578778 102.9713143 320.37546629 94.1768533 320.3793366 C84.0515041 320.3838183 73.92628983 320.40138065 63.80098164 320.43033719 C55.95440591 320.45199274 48.10786805 320.46204287 40.26126277 320.46337771 C35.5834456 320.46442255 30.90575564 320.47026231 26.22797012 320.48819733 C21.82674928 320.5047462 17.42575041 320.50680065 13.02450943 320.49805832 C11.41655887 320.4972917 9.80859601 320.50158071 8.20067596 320.51151657 C-0.69800077 320.56324668 -8.6217226 319.9841223 -17.14328003 317.14044189 C-18.7662254 316.71584276 -20.3910079 316.29814462 -22.01828003 315.89044189 C-32.17441931 312.79031671 -41.12878789 306.98735514 -49.14328003 300.14044189 C-49.94249878 299.49719971 -50.74171753 298.85395752 -51.56515503 298.19122314 C-61.42676627 289.90685718 -68.21769051 279.87038314 -73.58078003 268.26544189 C-73.89869507 267.59585449 -74.21661011 266.92626709 -74.54415894 266.23638916 C-80.05161583 253.56686822 -80.58985596 239.8146184 -80.53146362 226.23199463 C-80.53554213 224.60866953 -80.54089109 222.98534722 -80.5473938 221.36203003 C-80.56092034 217.00460034 -80.55583057 212.64738679 -80.54625654 208.28995395 C-80.53858429 203.69926352 -80.54572619 199.10858983 -80.55041504 194.51789856 C-80.55585025 186.81432827 -80.54873945 179.11084468 -80.53439331 171.4072876 C-80.51806532 162.53784822 -80.52336545 153.66861579 -80.53987253 144.7991814 C-80.55354451 137.14261891 -80.55537946 129.48611823 -80.54755652 121.82954746 C-80.54291198 117.27468643 -80.54216551 112.71992224 -80.55216599 108.16506767 C-80.56091736 103.88108264 -80.5546669 99.59736105 -80.53748322 95.31340408 C-80.53356178 93.7539024 -80.53457647 92.19437803 -80.54127121 90.63488579 C-80.63953733 65.39137381 -73.07334019 42.20387076 -55.13937378 24.04278564 C-40.1288113 9.3369095 -21.28930868 0.05200531 0 0 Z M-40.95968628 53.42950439 C-50.01986753 66.28179158 -51.44535767 79.84232185 -51.41793823 95.13409424 C-51.42229161 96.74317154 -51.42747684 98.35224677 -51.4334259 99.96131897 C-51.44675996 104.31058302 -51.44740082 108.65975987 -51.4448626 113.00904036 C-51.44378907 116.64946803 -51.44868603 120.28987833 -51.45346802 123.93030226 C-51.46454391 132.52379965 -51.46501146 141.11725333 -51.45895386 149.71075439 C-51.45291535 158.55455707 -51.46522636 167.39820061 -51.48652393 176.24197614 C-51.50417858 183.85501564 -51.51013519 191.46800466 -51.50688618 199.08106387 C-51.50507931 203.61914377 -51.5076497 208.15711013 -51.52160072 212.69517136 C-51.5342375 216.96508425 -51.53218006 221.23475026 -51.51918983 225.50465965 C-51.51683717 227.0642283 -51.5195113 228.62381464 -51.52781296 230.18336296 C-51.61688672 248.22961667 -47.11446294 261.59504319 -34.52218628 274.89044189 C-19.84518622 288.77213653 -3.72382604 291.45609426 15.75784302 291.39923096 C17.33267376 291.40194645 18.90750322 291.4055105 20.48233032 291.40985107 C24.72798059 291.41890874 28.97353282 291.41545897 33.21918464 291.4090929 C37.67704501 291.40400108 42.13489744 291.40873291 46.59275818 291.41186523 C54.07309464 291.41549451 61.55339149 291.41073192 69.03372192 291.40118408 C77.66855845 291.39028958 86.30330059 291.39383652 94.93813485 291.40483689 C102.37112473 291.41392515 109.80408627 291.41518788 117.23707992 291.40995955 C121.66825362 291.40684985 126.099383 291.4064032 130.53055382 291.41303253 C134.6945651 291.41882822 138.85845507 291.41476858 143.02245331 291.40324402 C144.54619203 291.40060981 146.06994105 291.40134124 147.59367561 291.40576935 C165.74256999 291.45363228 181.14754733 286.57262532 194.54421997 273.89044189 C207.94922662 259.94830083 211.15735679 243.14318861 211.16311646 224.48565674 C211.17074943 222.91262422 211.17917886 221.33959541 211.18833923 219.76657104 C211.21018178 215.51415898 211.21906953 211.26181878 211.22416568 207.00935698 C211.2278221 204.34527595 211.23406883 201.68121338 211.24116707 199.01713943 C211.26562817 189.70194939 211.27870576 180.38681475 211.28225708 171.07159424 C211.28588743 162.4231832 211.31575544 153.77512808 211.35766166 145.12682569 C211.39249272 137.67422998 211.40780774 130.22175149 211.40850312 122.76907504 C211.40929172 118.33024901 211.41783643 113.89178594 211.44650078 109.45304489 C211.47290169 105.27164275 211.47476576 101.09089881 211.45884514 96.90945053 C211.45704785 95.38702443 211.46356305 93.86455851 211.47966385 92.34221649 C211.63106589 77.07917194 208.01297624 64.54768353 198.85671997 52.14044189 C198.39652466 51.49719971 197.93632935 50.85395752 197.46218872 50.19122314 C193.19906137 44.72410018 187.55907859 40.9840671 181.85671997 37.14044189 C180.97886841 36.5197583 180.97886841 36.5197583 180.08328247 35.88653564 C169.43595851 28.9955011 156.58139087 28.54939647 144.3430481 28.60699463 C142.73809524 28.59991759 141.13314905 28.59116517 139.5282135 28.58088684 C135.21201295 28.55858513 130.89618238 28.56128669 126.57994652 28.57020831 C122.95941566 28.57535582 119.33895205 28.56799553 115.71842813 28.56073624 C107.17022607 28.54379891 98.6222028 28.54724129 90.07400513 28.56402588 C81.29081617 28.58095012 72.50812415 28.56509452 63.72498941 28.532803 C56.14829313 28.50601485 48.57175065 28.49885562 40.99501181 28.50731808 C36.485347 28.51221937 31.975981 28.51018445 27.46635437 28.48953056 C23.22410705 28.47102686 18.98256876 28.47730891 14.74035835 28.50172997 C13.19495042 28.50669126 11.64948704 28.50337178 10.10412407 28.49058151 C-11.00609564 28.3298487 -27.79035014 36.83330874 -40.95968628 53.42950439 Z " fill="#FEFDFD" transform="translate(176.14328002929688,95.85955810546875)"/>
<path d="M0 0 C15.5673196 14.35262115 25.21245174 33.68905826 26.4140625 54.875 C27.21727466 78.68841516 21.30965468 99.05231517 5 116.9375 C4.12021484 117.92169922 4.12021484 117.92169922 3.22265625 118.92578125 C-9.165094 132.07137034 -28.72358 141.9819824 -46.82983398 143.11450195 C-73.80279702 143.68128418 -94.75981383 138.17506541 -114.75390625 119.34375 C-129.85381362 103.66751028 -137.2236362 83.58488922 -137.125 62 C-137.12886719 61.15759766 -137.13273438 60.31519531 -137.13671875 59.44726562 C-137.1053131 39.0492945 -129.65523945 21.08844519 -116 5.9375 C-115.43667969 5.30457031 -114.87335938 4.67164063 -114.29296875 4.01953125 C-83.70276782 -28.43330487 -33.24794478 -26.74582655 0 0 Z " fill="#FEFDFD" transform="translate(310,194.0625)"/>
<path d="M0 0 C12.15968772 9.39861577 20.47678824 20.92501871 24 36 C24.29551814 39.2757076 24.3335506 42.52489204 24.3125 45.8125 C24.30831055 46.7003418 24.30412109 47.58818359 24.29980469 48.50292969 C24.19166282 54.76365342 23.5766683 60.23050359 21 66 C20.74476563 66.65355469 20.48953125 67.30710937 20.2265625 67.98046875 C14.61285884 80.88168681 4.05856246 89.75157501 -8.75 94.875 C-23.11920356 100.21921118 -37.05470545 98.84005633 -50.90625 92.71484375 C-65.01202277 85.60252293 -74.77869149 73.87792211 -80 59 C-83.65252963 45.13025911 -81.13234829 31.33819191 -74.35546875 19.0078125 C-66.32335357 5.62699759 -54.51237576 -3.26057585 -39.3203125 -7.37890625 C-25.74294691 -9.91867228 -11.66135524 -7.50058369 0 0 Z " fill="#D22677" transform="translate(283,211)"/>
<path d="M0 0 C5.29315663 1.73230581 7.84195002 4.57873003 11 9 C13.04584527 15.17638098 13.06474344 22.52239616 10.3125 28.4375 C7.61300099 33.10200536 3.88770329 35.85484133 -1 38 C-5.77270035 38.85226792 -9.96046317 38.42412675 -14.25 36.125 C-19.63875215 32.29898597 -22.2968974 26.82095919 -23.4765625 20.41015625 C-23.94808092 12.35711796 -20.46280402 7.88328275 -15.4375 2 C-10.34477551 -0.9630397 -5.75397657 -0.71232172 0 0 Z " fill="#FDFBFD" transform="translate(346,151)"/>
</svg>
