<svg xmlns="http://www.w3.org/2000/svg" xmlns:xlink="http://www.w3.org/1999/xlink" xmlns:svgjs="http://svgjs.com/svgjs" id="SvgjsSvg1006" version="1.1" viewBox="0 0 288 288"><defs id="SvgjsDefs1007"/><g id="SvgjsG1008" transform="matrix(1,0,0,1,0,0)"><svg xmlns="http://www.w3.org/2000/svg" viewBox="0 0 366 366" width="288" height="288">
<rect width="100%" height="100%" fill="white"/><path fill="#1c9bf0" d="M0 0 C7.68009823 6.00361661 14.82676899 13.07169326 19 22 C19.77601563 21.855625 20.55203125 21.71125 21.3515625 21.5625 C41.39504146 18.1182745 58.75853524 20.23863033 75.6875 32.0625 C86.68453748 41.16349654 93.19520286 54.99914944 95 69 C95.4839902 78.19581379 94.68151121 86.96187727 93 96 C94.03447266 96.60134766 94.03447266 96.60134766 95.08984375 97.21484375 C109.61192149 105.99980436 119.31502517 117.73405232 123.5 134.25 C126.80104163 148.84036294 124.48021669 163.55414744 116.7578125 176.4765625 C110.64551239 185.25110889 102.79905203 193.41976894 93 198 C93.144375 198.57363281 93.28875 199.14726562 93.4375 199.73828125 C97.51499301 218.39847496 95.37659293 235.768604 85 252 C77.37284796 263.2058744 64.15053355 270.51870756 51.17504883 273.61181641 C47.34944746 274.29457611 43.5636888 274.29398958 39.6875 274.25 C38.44552856 274.24419922 38.44552856 274.24419922 37.1784668 274.23828125 C30.97144065 274.1509523 25.0349239 273.5189022 19 272 C18.59910156 272.68964844 18.19820312 273.37929688 17.78515625 274.08984375 C9.00019564 288.61192149 -2.73405232 298.31502517 -19.25 302.5 C-33.84036294 305.80104163 -48.55414744 303.48021669 -61.4765625 295.7578125 C-70.25110889 289.64551239 -78.41976894 281.79905203 -83 272 C-83.78761719 272.144375 -84.57523437 272.28875 -85.38671875 272.4375 C-104.43660336 275.68387087 -120.97645946 273.94000709 -137.5 263.40625 C-143.39036638 259.18747408 -147.27711213 254.17068665 -151 248 C-151.474375 247.21753906 -151.94875 246.43507813 -152.4375 245.62890625 C-160.7719917 230.52264005 -159.72121703 214.42448853 -157 198 C-157.70125 197.5875 -158.4025 197.175 -159.125 196.75 C-173.5807511 187.95084715 -183.17131168 175.98018191 -187.68359375 159.50390625 C-190.89662737 145.30008175 -188.39291782 130.18567195 -180.8828125 117.65625 C-174.29861585 108.36734186 -167.03060169 101.51004038 -157 96 C-157.144375 95.12859375 -157.28875 94.2571875 -157.4375 93.359375 C-160.16589144 75.85219658 -159.82210324 59.41643161 -150 44 C-139.77011044 30.62536662 -126.73535822 22.44534915 -110 20 C-100.8127558 19.34082553 -92.03015553 20.31997106 -83 22 C-82.59910156 21.31035156 -82.19820313 20.62070312 -81.78515625 19.91015625 C-73.00019564 5.38807851 -61.26594768 -4.31502517 -44.75 -8.5 C-29.23224814 -12.0108616 -13.17780535 -9.17958577 0 0 Z M17 88 C16.65710938 88.40347656 16.31421875 88.80695313 15.9609375 89.22265625 C11.20530713 94.73965601 6.24158695 100.0497422 1.26171875 105.36303711 C-2.79142894 109.69209573 -6.78516009 114.06750805 -10.73828125 118.48828125 C-14.92859272 123.1417705 -19.19346168 127.72687642 -23.44726562 132.32226562 C-27.47650336 136.67586967 -31.49992248 141.0348515 -35.52099609 145.39599609 C-36.51323493 146.47209533 -37.50575144 147.54793859 -38.49853516 148.62353516 C-43.76574767 154.33270323 -48.99975654 160.05376453 -54 166 C-57.31945598 165.41698588 -58.94397352 164.42556778 -61.29980469 162.04077148 C-61.92014587 161.4202037 -62.54048706 160.79963593 -63.17962646 160.16026306 C-63.83706848 159.48733719 -64.4945105 158.81441132 -65.171875 158.12109375 C-65.8542926 157.4344313 -66.53671021 156.74776886 -67.23980713 156.04029846 C-69.41701196 153.84630585 -71.58355281 151.64211084 -73.75 149.4375 C-75.22456971 147.94788366 -76.69982213 146.4589428 -78.17578125 144.97070312 C-81.79182176 141.32159192 -85.39833288 137.66329621 -89 134 C-92.3247945 135.57588004 -94.51631617 137.2817149 -97.109375 139.9140625 C-97.86347656 140.67460937 -98.61757812 141.43515625 -99.39453125 142.21875 C-100.17183594 143.0128125 -100.94914062 143.806875 -101.75 144.625 C-102.54277344 145.42679688 -103.33554688 146.22859375 -104.15234375 147.0546875 C-106.10614493 149.03202846 -108.05512103 151.01388909 -110 153 C-108.42476254 156.85308766 -105.82252556 159.44743914 -102.90771484 162.31933594 C-102.1318679 163.09562096 -102.1318679 163.09562096 -101.34034729 163.8875885 C-99.63524329 165.59130289 -97.92317232 167.28782978 -96.2109375 168.984375 C-95.025087 170.16649407 -93.83967826 171.34905645 -92.6546936 172.53204346 C-89.53882362 175.64028728 -86.41699366 178.74247737 -83.29388428 181.84344482 C-80.10636381 185.01048502 -76.9245168 188.18321387 -73.7421875 191.35546875 C-67.50033024 197.57589403 -61.25216515 203.78993537 -55 210 C-53.89405141 209.06604157 -52.79011841 208.12969613 -51.68701172 207.19238281 C-51.07203827 206.67121887 -50.45706482 206.15005493 -49.82345581 205.61309814 C-47.05910143 203.16764545 -44.5941291 200.48830737 -42.125 197.75 C-41.60744141 197.1828125 -41.08988281 196.615625 -40.55664062 196.03125 C-36.79496118 191.90223721 -33.06430627 187.74502036 -29.3359375 183.5859375 C-25.60586557 179.45666055 -21.82145343 175.37789794 -18.04296875 171.29296875 C-15.16605238 168.18217159 -12.29950383 165.06201655 -9.4375 161.9375 C-8.98777832 161.44652832 -8.53805664 160.95555664 -8.07470703 160.44970703 C-7.16937398 159.46115485 -6.26410037 158.47254823 -5.35888672 157.48388672 C-3.07357504 154.98835593 -0.7867042 152.49425473 1.5 150 C2.41667404 149.00000675 3.3333407 148.00000676 4.25 147 C9.75 141 9.75 141 11.12524414 139.49975586 C12.04112649 138.50059669 12.9569794 137.50141053 13.87280273 136.50219727 C16.17622769 133.98910945 18.48017602 131.47650522 20.78515625 128.96484375 C26.87561897 122.32691172 32.9460013 115.67121766 39 109 C37.64294721 105.93817833 36.14324476 103.93108305 33.69921875 101.65234375 C33.05146484 101.04712891 32.40371094 100.44191406 31.73632812 99.81835938 C30.7221582 98.88733398 30.7221582 98.88733398 29.6875 97.9375 C29.02298828 97.31294922 28.35847656 96.68839844 27.67382812 96.04492188 C24.30165325 92.91957286 21.0966951 90.16324519 17 88 Z " transform="translate(215 36)" class="color1C9BF0 svgShape"/></svg></g></svg>