<svg width="12" height="12" viewBox="0 0 12 12" fill="none" xmlns="http://www.w3.org/2000/svg">
<path d="M8.50062 0.635739L7.36624 1.71103L10.4131 4.59919L11.5475 3.5239C12.1334 2.96849 12.1334 2.06871 11.5475 1.5133L10.6241 0.635739C10.0381 0.0803232 9.0889 0.0803232 8.50296 0.635739H8.50062ZM6.83656 2.21312L1.37328 7.39404C1.12953 7.6251 0.9514 7.91169 0.852963 8.22495L0.0232751 10.8976C-0.0353187 11.0865 0.0185876 11.2886 0.1639 11.4264C0.309213 11.5641 0.522494 11.6152 0.719369 11.5619L3.5389 10.7754C3.86937 10.6821 4.17171 10.5133 4.41546 10.2822L9.88343 5.10129L6.83656 2.21312Z" fill="#949494"/>
</svg>
