<svg width="9" height="8" viewBox="0 0 9 8" fill="none" xmlns="http://www.w3.org/2000/svg">
<g clip-path="url(#clip0_196_140)">
<path d="M2.6209 1.0125L2.43809 1.5H1.125C0.504492 1.5 0 1.94844 0 2.5V6.5C0 7.05156 0.504492 7.5 1.125 7.5H7.875C8.49551 7.5 9 7.05156 9 6.5V2.5C9 1.94844 8.49551 1.5 7.875 1.5H6.56191L6.3791 1.0125C6.26484 0.70625 5.94316 0.5 5.5793 0.5H3.4207C3.05684 0.5 2.73516 0.70625 2.6209 1.0125ZM4.5 3C4.94755 3 5.37678 3.15804 5.69324 3.43934C6.00971 3.72064 6.1875 4.10218 6.1875 4.5C6.1875 4.89782 6.00971 5.27936 5.69324 5.56066C5.37678 5.84196 4.94755 6 4.5 6C4.05245 6 3.62322 5.84196 3.30676 5.56066C2.99029 5.27936 2.8125 4.89782 2.8125 4.5C2.8125 4.10218 2.99029 3.72064 3.30676 3.43934C3.62322 3.15804 4.05245 3 4.5 3Z" fill="white"/>
</g>
<defs>
<clipPath id="clip0_196_140">
<rect width="9" height="8" fill="white"/>
</clipPath>
</defs>
</svg>
