<svg width="32" height="32" viewBox="0 0 32 32" fill="none" xmlns="http://www.w3.org/2000/svg">
<g clip-path="url(#clip0_254_219)">
<path d="M3.55556 3.55554C1.59444 3.55554 0 5.14999 0 7.1111V8.88888H32V7.1111C32 5.14999 30.4056 3.55554 28.4444 3.55554H3.55556ZM32 14.2222H0V24.8889C0 26.85 1.59444 28.4444 3.55556 28.4444H28.4444C30.4056 28.4444 32 26.85 32 24.8889V14.2222ZM6.22222 21.3333H9.77778C10.2667 21.3333 10.6667 21.7333 10.6667 22.2222C10.6667 22.7111 10.2667 23.1111 9.77778 23.1111H6.22222C5.73333 23.1111 5.33333 22.7111 5.33333 22.2222C5.33333 21.7333 5.73333 21.3333 6.22222 21.3333ZM12.4444 22.2222C12.4444 21.7333 12.8444 21.3333 13.3333 21.3333H20.4444C20.9333 21.3333 21.3333 21.7333 21.3333 22.2222C21.3333 22.7111 20.9333 23.1111 20.4444 23.1111H13.3333C12.8444 23.1111 12.4444 22.7111 12.4444 22.2222Z" fill="white"/>
</g>
<defs>
<clipPath id="clip0_254_219">
<rect width="32" height="32" fill="white"/>
</clipPath>
</defs>
</svg>
