<svg width="32" height="32" viewBox="0 0 32 32" fill="none" xmlns="http://www.w3.org/2000/svg">
<g clip-path="url(#clip0_254_221)">
<path d="M4.8 9.60001C4.8 7.90263 5.47428 6.27476 6.67452 5.07453C7.87475 3.8743 9.50261 3.20001 11.2 3.20001C12.8974 3.20001 14.5253 3.8743 15.7255 5.07453C16.9257 6.27476 17.6 7.90263 17.6 9.60001C17.6 11.2974 16.9257 12.9253 15.7255 14.1255C14.5253 15.3257 12.8974 16 11.2 16C9.50261 16 7.87475 15.3257 6.67452 14.1255C5.47428 12.9253 4.8 11.2974 4.8 9.60001ZM0 27.315C0 22.39 3.99 18.4 8.915 18.4H13.485C18.41 18.4 22.4 22.39 22.4 27.315C22.4 28.135 21.735 28.8 20.915 28.8H1.485C0.665 28.8 0 28.135 0 27.315ZM25.2 18.8V15.6H22C21.335 15.6 20.8 15.065 20.8 14.4C20.8 13.735 21.335 13.2 22 13.2H25.2V10C25.2 9.33501 25.735 8.80001 26.4 8.80001C27.065 8.80001 27.6 9.33501 27.6 10V13.2H30.8C31.465 13.2 32 13.735 32 14.4C32 15.065 31.465 15.6 30.8 15.6H27.6V18.8C27.6 19.465 27.065 20 26.4 20C25.735 20 25.2 19.465 25.2 18.8Z" fill="#FCFCFC"/>
</g>
<defs>
<clipPath id="clip0_254_221">
<rect width="32" height="32" fill="white"/>
</clipPath>
</defs>
</svg>
