<svg width="32" height="32" viewBox="0 0 32 32" fill="none" xmlns="http://www.w3.org/2000/svg">
<g clip-path="url(#clip0_318_322)">
<path d="M4.8 9.6002C4.8 7.90281 5.47428 6.27494 6.67452 5.07471C7.87475 3.87448 9.50261 3.2002 11.2 3.2002C12.8974 3.2002 14.5253 3.87448 15.7255 5.07471C16.9257 6.27494 17.6 7.90281 17.6 9.6002C17.6 11.2976 16.9257 12.9254 15.7255 14.1257C14.5253 15.3259 12.8974 16.0002 11.2 16.0002C9.50261 16.0002 7.87475 15.3259 6.67452 14.1257C5.47428 12.9254 4.8 11.2976 4.8 9.6002ZM0 27.3152C0 22.3902 3.99 18.4002 8.915 18.4002H13.485C18.41 18.4002 22.4 22.3902 22.4 27.3152C22.4 28.1352 21.735 28.8002 20.915 28.8002H1.485C0.665 28.8002 0 28.1352 0 27.3152ZM25.2 18.8002V15.6002H22C21.335 15.6002 20.8 15.0652 20.8 14.4002C20.8 13.7352 21.335 13.2002 22 13.2002H25.2V10.0002C25.2 9.3352 25.735 8.8002 26.4 8.8002C27.065 8.8002 27.6 9.3352 27.6 10.0002V13.2002H30.8C31.465 13.2002 32 13.7352 32 14.4002C32 15.0652 31.465 15.6002 30.8 15.6002H27.6V18.8002C27.6 19.4652 27.065 20.0002 26.4 20.0002C25.735 20.0002 25.2 19.4652 25.2 18.8002Z" fill="#0C0B0B"/>
</g>
<defs>
<clipPath id="clip0_318_322">
<rect width="32" height="32" fill="white"/>
</clipPath>
</defs>
</svg>
