<svg width="32" height="32" viewBox="0 0 32 32" fill="none" xmlns="http://www.w3.org/2000/svg">
<path d="M31.9113 10.4145C32.1235 10.9584 31.9444 11.5648 31.4869 11.9523L28.6156 14.4153C28.6886 14.9342 28.7284 15.4655 28.7284 16.0031C28.7284 16.5407 28.6886 17.0721 28.6156 17.5909L31.4869 20.0539C31.9444 20.4415 32.1235 21.0479 31.9113 21.5917C31.6195 22.3356 31.2681 23.0483 30.8636 23.7359L30.5519 24.2422C30.1143 24.9299 29.6236 25.58 29.0865 26.1926C28.6952 26.6427 28.0454 26.7927 27.4618 26.6177L23.7683 25.5112C22.8798 26.1551 21.8984 26.6927 20.8506 27.099L20.0218 30.6685C19.8891 31.2374 19.425 31.6874 18.8149 31.7812C17.8998 31.925 16.9582 32 15.9967 32C15.0352 32 14.0936 31.925 13.1785 31.7812C12.5684 31.6874 12.1042 31.2374 11.9716 30.6685L11.1427 27.099C10.095 26.6927 9.11362 26.1551 8.22505 25.5112L4.53817 26.624C3.95463 26.799 3.30478 26.6427 2.91355 26.1989C2.37643 25.5862 1.88573 24.9361 1.44808 24.2485L1.13642 23.7421C0.731923 23.0545 0.380476 22.3419 0.0887078 21.598C-0.123487 21.0541 0.0555524 20.4477 0.513097 20.0602L3.38436 17.5972C3.31142 17.0721 3.27163 16.5407 3.27163 16.0031C3.27163 15.4655 3.31142 14.9342 3.38436 14.4153L0.513097 11.9523C0.0555524 11.5648 -0.123487 10.9584 0.0887078 10.4145C0.380476 9.67064 0.731923 8.958 1.13642 8.27037L1.44808 7.76402C1.88573 7.07638 2.37643 6.42626 2.91355 5.81364C3.30478 5.36355 3.95463 5.21352 4.53817 5.38855L8.23168 6.49502C9.12025 5.85114 10.1016 5.31354 11.1494 4.90721L11.9782 1.33776C12.1109 0.7689 12.575 0.318812 13.1851 0.225044C14.1002 0.0750146 15.0418 0 16.0033 0C16.9648 0 17.9064 0.0750147 18.8215 0.218793C19.4316 0.312561 19.8958 0.762649 20.0284 1.33151L20.8573 4.90096C21.905 5.30729 22.8864 5.84489 23.775 6.48877L27.4685 5.3823C28.052 5.20727 28.7018 5.36355 29.0931 5.80738C29.6302 6.42 30.1209 7.07013 30.5586 7.75777L30.8702 8.26411C31.2747 8.95175 31.6262 9.66439 31.9179 10.4083L31.9113 10.4145ZM16.0033 21.0041C17.4103 21.0041 18.7596 20.4772 19.7544 19.5394C20.7493 18.6015 21.3082 17.3295 21.3082 16.0031C21.3082 14.6768 20.7493 13.4048 19.7544 12.4669C18.7596 11.529 17.4103 11.0021 16.0033 11.0021C14.5964 11.0021 13.2471 11.529 12.2522 12.4669C11.2574 13.4048 10.6984 14.6768 10.6984 16.0031C10.6984 17.3295 11.2574 18.6015 12.2522 19.5394C13.2471 20.4772 14.5964 21.0041 16.0033 21.0041Z" fill="black"/>
</svg>
