<svg width="35" height="35" viewBox="0 0 35 35" fill="none" xmlns="http://www.w3.org/2000/svg">
<path d="M27.2754 26.2637C25.7646 23.6387 22.9277 21.875 19.6875 21.875H15.3125C12.0723 21.875 9.23535 23.6387 7.72461 26.2637C10.1309 28.9434 13.6172 30.625 17.5 30.625C21.3828 30.625 24.8691 28.9365 27.2754 26.2637ZM0 17.5C0 12.8587 1.84374 8.40752 5.12563 5.12563C8.40752 1.84374 12.8587 0 17.5 0C22.1413 0 26.5925 1.84374 29.8744 5.12563C33.1563 8.40752 35 12.8587 35 17.5C35 22.1413 33.1563 26.5925 29.8744 29.8744C26.5925 33.1563 22.1413 35 17.5 35C12.8587 35 8.40752 33.1563 5.12563 29.8744C1.84374 26.5925 0 22.1413 0 17.5ZM17.5 18.5938C18.8054 18.5938 20.0573 18.0752 20.9803 17.1522C21.9033 16.2291 22.4219 14.9772 22.4219 13.6719C22.4219 12.3665 21.9033 11.1146 20.9803 10.1916C20.0573 9.26855 18.8054 8.75 17.5 8.75C16.1946 8.75 14.9427 9.26855 14.0197 10.1916C13.0967 11.1146 12.5781 12.3665 12.5781 13.6719C12.5781 14.9772 13.0967 16.2291 14.0197 17.1522C14.9427 18.0752 16.1946 18.5938 17.5 18.5938Z" fill="white"/>
</svg>
