<svg width="43" height="43" viewBox="0 0 43 43" fill="none" xmlns="http://www.w3.org/2000/svg">
<g filter="url(#filter0_d_254_225)">
<path d="M31.2754 26.2637C29.7646 23.6387 26.9277 21.875 23.6875 21.875H19.3125C16.0723 21.875 13.2354 23.6387 11.7246 26.2637C14.1309 28.9434 17.6172 30.625 21.5 30.625C25.3828 30.625 28.8691 28.9365 31.2754 26.2637ZM4 17.5C4 12.8587 5.84374 8.40752 9.12563 5.12563C12.4075 1.84374 16.8587 0 21.5 0C26.1413 0 30.5925 1.84374 33.8744 5.12563C37.1563 8.40752 39 12.8587 39 17.5C39 22.1413 37.1563 26.5925 33.8744 29.8744C30.5925 33.1563 26.1413 35 21.5 35C16.8587 35 12.4075 33.1563 9.12563 29.8744C5.84374 26.5925 4 22.1413 4 17.5ZM21.5 18.5938C22.8054 18.5938 24.0573 18.0752 24.9803 17.1522C25.9033 16.2291 26.4219 14.9772 26.4219 13.6719C26.4219 12.3665 25.9033 11.1146 24.9803 10.1916C24.0573 9.26855 22.8054 8.75 21.5 8.75C20.1946 8.75 18.9427 9.26855 18.0197 10.1916C17.0967 11.1146 16.5781 12.3665 16.5781 13.6719C16.5781 14.9772 17.0967 16.2291 18.0197 17.1522C18.9427 18.0752 20.1946 18.5938 21.5 18.5938Z" fill="black"/>
</g>
<defs>
<filter id="filter0_d_254_225" x="0" y="0" width="43" height="43" filterUnits="userSpaceOnUse" color-interpolation-filters="sRGB">
<feFlood flood-opacity="0" result="BackgroundImageFix"/>
<feColorMatrix in="SourceAlpha" type="matrix" values="0 0 0 0 0 0 0 0 0 0 0 0 0 0 0 0 0 0 127 0" result="hardAlpha"/>
<feOffset dy="4"/>
<feGaussianBlur stdDeviation="2"/>
<feComposite in2="hardAlpha" operator="out"/>
<feColorMatrix type="matrix" values="0 0 0 0 0 0 0 0 0 0 0 0 0 0 0 0 0 0 0.25 0"/>
<feBlend mode="normal" in2="BackgroundImageFix" result="effect1_dropShadow_254_225"/>
<feBlend mode="normal" in="SourceGraphic" in2="effect1_dropShadow_254_225" result="shape"/>
</filter>
</defs>
</svg>
